<?xml version="1.0" encoding="UTF-8"?>
<svg width="256px" height="256px" viewBox="0 0 256 256" version="1.1" xmlns="http://www.w3.org/2000/svg" xmlns:xlink="http://www.w3.org/1999/xlink" preserveAspectRatio="xMidYMid">
    <g>
        <path d="M0,0 L256,0 L256,256 L0,256 L0,0 Z" fill="#F7DF1E"></path>
        <path d="M67.311746,213.932292 L86.902654,202.076241 C90.6823379,208.777582 94.1202283,214.447137 102.367086,214.447137 C110.272203,214.447137 115.256076,211.354819 115.256076,201.300595 L115.256076,123.663724 L134.431665,123.663724 L134.431665,201.300595 C134.431665,224.654219 120.577608,233.600777 103.398104,233.600777 C87.4694338,233.600777 78.3846992,225.278241 67.311746,213.932292 Z" fill="#000000"></path>
        <path d="M152.380952,211.354819 C165.249956,211.354819 174.654292,202.972972 174.654292,189.424652 C174.654292,176.580654 165.249956,168.198807 152.380952,168.198807 C139.511947,168.198807 130.107612,176.580654 130.107612,189.424652 C130.107612,202.972972 139.511947,211.354819 152.380952,211.354819 Z M152.380952,233.600777 C130.107612,233.600777 115.256076,220.757912 115.256076,189.424652 C115.256076,158.092799 130.107612,145.249121 152.380952,145.249121 C174.654292,145.249121 189.505828,158.092799 189.505828,189.424652 C189.505828,220.757912 174.654292,233.600777 152.380952,233.600777 Z" fill="#000000"></path>
    </g>
</svg> 