<?xml version="1.0" encoding="UTF-8"?>
<svg width="256px" height="256px" viewBox="0 0 256 256" version="1.1" xmlns="http://www.w3.org/2000/svg" xmlns:xlink="http://www.w3.org/1999/xlink" preserveAspectRatio="xMidYMid">
    <g>
        <path d="M0,0 L256,0 L256,256 L0,256 L0,0 Z" fill="#339933"></path>
        <path d="M128,48 C85.4903333,48 52,81.4903333 52,124 C52,166.509667 85.4903333,200 128,200 C170.509667,200 204,166.509667 204,124 C204,81.4903333 170.509667,48 128,48 Z" fill="#FFFFFF"></path>
        <path d="M128,72 C156.627417,72 180,95.372583 180,124 C180,152.627417 156.627417,176 128,176 C99.372583,176 76,152.627417 76,124 C76,95.372583 99.372583,72 128,72 Z" fill="#339933"></path>
    </g>
</svg> 