<?xml version="1.0" encoding="UTF-8"?>
<svg width="256px" height="135px" viewBox="0 0 256 135" version="1.1" xmlns="http://www.w3.org/2000/svg" xmlns:xlink="http://www.w3.org/1999/xlink" preserveAspectRatio="xMidYMid">
    <g>
        <path d="M128,0 C57.3075981,0 0,30.3075981 0,67.5 C0,104.692402 57.3075981,135 128,135 C198.692402,135 256,104.692402 256,67.5 C256,30.3075981 198.692402,0 128,0 Z" fill="#777BB4"></path>
        <path d="M128,39.2307692 C83.0769231,39.2307692 47.6923077,51.2307692 47.6923077,67.5 C47.6923077,83.7692308 83.0769231,95.7692308 128,95.7692308 C172.923077,95.7692308 208.307692,83.7692308 208.307692,67.5 C208.307692,51.2307692 172.923077,39.2307692 128,39.2307692 Z" fill="#FFFFFF"></path>
        <path d="M128,39.2307692 C83.0769231,39.2307692 47.6923077,51.2307692 47.6923077,67.5 C47.6923077,83.7692308 83.0769231,95.7692308 128,95.7692308 C172.923077,95.7692308 208.307692,83.7692308 208.307692,67.5 C208.307692,51.2307692 172.923077,39.2307692 128,39.2307692 Z" fill="#FFFFFF"></path>
    </g>
</svg> 